<?xml version="1.0" standalone="yes"?>
<!DOCTYPE svg PUBLIC "-//W3C//DTD SVG 20010904//EN" "http://www.w3.org/TR/2001/REC-SVG-20010904/DTD/svg10.dtd">
<svg xmlns="http://www.w3.org/2000/svg" version="1.0" width="1000.000000pt" height="1000.000000pt" viewBox="0 0 1000.000000 1000.000000" preserveAspectRatio="xMidYMid meet" style="zoom: 1;"><circle stroke="none" transform="" id="circle1" stroke-width="3px" cy="462.75174px" fill="#ffffff" r="194.250732px" cx="437.25174px"></circle><circle stroke="none" transform="" id="circle2" stroke-width="3px" cy="510.752014px" fill="#ffffff" r="150.000549px" cx="377.251434px"></circle><circle stroke="none" id="circle3" stroke-width="3px" cy="513.002014px" fill="#ffffff" r="105.750427px" cx="547.502136px" transform=""></circle><rect stroke="none" x="260.251007px" height="172.500732px" y="561.002197px" id="rect1" stroke-width="3px" width="394.501556px" fill="#ffffff" transform=""></rect><circle stroke="none" cx="824.253174px" id="circle4" stroke-width="3px" cy="716.252808px" fill="#ffffff" r="33.000122px" transform=""></circle><circle stroke="none" stroke-width="3px" cy="657.002625px" id="circle5" fill="#ffffff" r="76.500366px" transform="" cx="648.752441px"></circle><rect stroke="none" x="651.752502px" height="67.500244px" y="671.252625px" id="rect2" stroke-width="3px" width="158.25061px" fill="#ffffff" transform=""></rect><rect stroke="none" x="639.002502px" height="27.000061px" y="649.502563px" id="rect3" stroke-width="3px" width="137.250549px" fill="#ffffff" transform=""></rect><rect stroke="none" x="706.502808px" height="31.500122px" y="632.252502px" id="rect4" stroke-width="3px" width="35.250122px" fill="#ffffff" transform=""></rect><circle stroke="none" id="circle6" stroke-width="3px" cy="684.752625px" fill="#ffffff" r="30.750122px" cx="767.252991px" transform=""></circle><g transform="translate(0.000000,1000.000000) scale(0.100000,-0.100000)" fill="#000000" stroke="none"><path d="M4100,7496 c-114,-16 -222,-43 -360,-92 c-596,-207 -1026,-726 -1384,-1669 c-56,-148 -58,-151 -125,-215 c-115,-110 -135,-174 -136,-430 c0,-153 4,-199 33,-365 c37,-213 72,-355 106,-431 c13,-28 56,-94 95,-146 c39,-52 77,-113 86,-137 c11,-33 16,-117 21,-374 c7,-365 -3,-602 -36,-807 c-22,-141 -25,-232 -9,-279 c23,-67 -256,-61 3254,-62 c2849,0 3188,2 3215,16 c67,34 66,107 -2,194 c-44,57 -135,147 -301,299 c-279,254 -372,321 -812,592 c-371,227 -441,276 -719,494 c-294,230 -392,315 -400,344 c-4,12 3,98 15,190 c22,175 22,205 -1,537 c-16,224 -46,330 -139,489 c-76,130 -245,293 -342,328 c-9,4 -19,19 -22,35 c-85,398 -120,542 -148,593 c-41,77 -298,376 -405,473 c-239,214 -529,345 -899,408 c-155,26 -451,34 -585,15  z m562,-225 c224,-39 511,-160 680,-286 c182,-137 394,-362 452,-480 c17,-36 48,-155 91,-351 c52,-237 69,-302 87,-321 c12,-13 58,-43 101,-66 c163,-87 295,-273 337,-476 c46,-228 51,-499 11,-716 c-11,-60 -21,-137 -21,-171 c0,-51 4,-66 30,-100 c39,-54 196,-186 486,-408 c315,-240 454,-337 676,-471 c303,-181 424,-263 608,-409 c174,-139 350,-294 350,-308 c0,-5 -1336,-8 -2970,-8 l-2970,0 l0,31 c0,17 9,153 19,303 c11,149 22,325 25,390 c3,66 8,121 10,123 c2,2 61,-43 132,-100 c368,-295 529,-365 1019,-443 c227,-35 231,-37 319,-95 c98,-64 135,-72 170,-34 c49,52 26,127 -56,183 c-109,74 -177,98 -337,117 c-215,26 -429,76 -569,134 c-152,63 -383,223 -586,406 l-106,96 l0,57 c0,153 -36,258 -126,372 c-36,46 -74,101 -86,123 c-44,87 -69,227 -129,707 c-10,83 -4,167 17,220 c8,19 45,64 84,100 c67,62 72,70 114,181 c125,332 284,671 402,859 c313,501 698,770 1207,844 c144,21 394,20 529,-3  z "></path><path d="M3655 6536 c-58 -60 -86 -137 -92 -253 -7 -108 13 -202 57 -280 60 -105 137 -93 200 32 l35 70 0 150 c0 136 -2 155 -23 201 -26 58 -63 97 -106 114 -27 10 -32 8 -71 -34z"></path><path d="M5521 6545 c-60 -55 -93 -140 -99 -255 -5 -111 7 -183 48 -268 37 -79 76 -102 132 -79 78 33 123 167 116 342 -7 163 -49 253 -131 284 -24 9 -32 7 -66 -24z"></path><path d="M4404 6320 c-98 -8 -206 -47 -224 -80 -35 -65 -62 -608 -41 -810 6 -58 19 -191 30 -296 27 -257 55 -332 240 -649 143 -243 190 -298 302 -350 83 -38 98 -35 168 40 120 128 186 279 237 536 30 151 56 226 142 414 99 214 102 227 92 531 -6 192 -12 275 -25 319 -28 98 -84 193 -164 278 l-74 77 -296 -1 c-163 -1 -337 -5 -387 -9z"></path></g><ellipse stroke="none" ry="18.000061px" id="ellipse1" stroke-width="3px" cy="662.252563px" fill="#ffffff" rx="19.500061px" transform="" cx="732.002869px"></ellipse></svg>